<?xml version="1.0" standalone="no"?>
<!DOCTYPE svg PUBLIC "-//W3C//DTD SVG 20010904//EN"
 "http://www.w3.org/TR/2001/REC-SVG-20010904/DTD/svg10.dtd">
<svg version="1.0" xmlns="http://www.w3.org/2000/svg"
 width="1536.000000pt" height="1536.000000pt" viewBox="0 0 1536.000000 1536.000000"
 preserveAspectRatio="xMidYMid meet">
<metadata>
Created by potrace 1.14, written by Peter Selinger 2001-2017
</metadata>
<g transform="translate(0.000000,1536.000000) scale(0.100000,-0.100000)"
fill="#000000" stroke="none">
<path d="M0 7680 l0 -7680 7680 0 7680 0 0 7680 0 7680 -7680 0 -7680 0 0
-7680z m3129 4970 c235 -11 787 -68 1034 -106 l37 -6 0 -299 0 -299 -650 0
-650 0 -2 -1572 -3 -1573 -27 -73 c-37 -101 -94 -185 -191 -279 -104 -102
-246 -195 -439 -288 -158 -75 -405 -183 -470 -204 -21 -7 -38 -16 -38 -20 0
-4 60 -31 132 -61 346 -140 636 -316 808 -489 110 -111 155 -177 199 -289 l26
-67 3 -1572 2 -1573 650 0 650 0 0 -273 0 -274 -82 -22 c-585 -153 -1368 -196
-1717 -95 -173 51 -293 145 -384 304 -56 97 -99 269 -128 510 -9 66 -14 536
-18 1531 l-6 1437 -38 55 c-118 171 -486 368 -876 467 -99 25 -274 60 -302 60
-5 0 -9 157 -9 348 l0 348 113 17 c480 72 992 310 1093 508 l24 48 0 1283 c0
713 5 1372 10 1483 32 636 175 897 544 994 180 47 355 57 705 41z m9686 -15
c406 -71 571 -259 640 -729 29 -197 35 -496 35 -1784 l0 -1273 24 -48 c102
-201 636 -446 1119 -512 l87 -12 0 -349 c0 -191 -4 -348 -9 -348 -28 0 -203
-35 -302 -60 -416 -106 -814 -328 -897 -502 l-22 -44 0 -1275 c0 -1282 -6
-1582 -35 -1784 -57 -405 -205 -614 -496 -699 -169 -48 -446 -66 -764 -47
-369 22 -656 65 -952 142 l-83 22 0 274 0 273 650 0 650 0 2 1573 3 1572 26
67 c40 102 86 172 173 265 173 183 485 374 859 524 94 38 129 59 97 59 -20 0
-353 146 -515 225 -225 111 -309 167 -435 294 -85 85 -113 121 -143 182 -70
143 -67 47 -67 1757 l0 1542 -650 0 -650 0 0 299 0 299 38 6 c74 12 441 56
637 76 386 41 793 47 980 15z m-5715 -4355 l0 -3300 1480 0 1480 0 0 -430 0
-430 -2037 2 -2038 3 -3 3728 -2 3727 560 0 560 0 0 -3300z"/>
</g>
</svg>
